<svg width="512" height="512" viewBox="0 0 512 512" fill="none" xmlns="http://www.w3.org/2000/svg">
  <!-- Background -->
  <rect width="512" height="512" rx="80" fill="#A6452E"/>

  <!-- Decorative Circle -->
  <circle cx="256" cy="256" r="180" fill="#FAF7F2" opacity="0.15"/>

  <!-- Main Icon - Stylized Feather/Leaf Symbol -->
  <g transform="translate(256, 256)">
    <!-- Center stem -->
    <rect x="-8" y="-140" width="16" height="280" rx="8" fill="#FAF7F2"/>

    <!-- Left feather elements -->
    <ellipse cx="-60" cy="-80" rx="50" ry="30" fill="#FAF7F2" opacity="0.9" transform="rotate(-30 -60 -80)"/>
    <ellipse cx="-70" cy="-20" rx="60" ry="35" fill="#FAF7F2" opacity="0.9" transform="rotate(-25 -70 -20)"/>
    <ellipse cx="-75" cy="40" rx="65" ry="38" fill="#FAF7F2" opacity="0.9" transform="rotate(-20 -75 40)"/>

    <!-- Right feather elements -->
    <ellipse cx="60" cy="-80" rx="50" ry="30" fill="#FAF7F2" opacity="0.9" transform="rotate(30 60 -80)"/>
    <ellipse cx="70" cy="-20" rx="60" ry="35" fill="#FAF7F2" opacity="0.9" transform="rotate(25 70 -20)"/>
    <ellipse cx="75" cy="40" rx="65" ry="38" fill="#FAF7F2" opacity="0.9" transform="rotate(20 75 40)"/>

    <!-- Accent circles -->
    <circle cx="0" cy="-120" r="12" fill="#F3C65D"/>
    <circle cx="-40" cy="-60" r="8" fill="#F3C65D" opacity="0.7"/>
    <circle cx="40" cy="-60" r="8" fill="#F3C65D" opacity="0.7"/>
  </g>

  <!-- Optional: Text badge at bottom -->
  <g transform="translate(256, 420)">
    <rect x="-80" y="-20" width="160" height="40" rx="20" fill="#FAF7F2" opacity="0.2"/>
    <text x="0" y="8" text-anchor="middle" font-family="Inter, sans-serif" font-size="28" font-weight="700" fill="#FAF7F2">TRH</text>
  </g>
</svg>
